<?xml version="1.0" encoding="UTF-8" standalone="no"?><!DOCTYPE svg PUBLIC "-//W3C//DTD SVG 1.1//EN" "http://www.w3.org/Graphics/SVG/1.1/DTD/svg11.dtd"><svg width="100%" height="100%" viewBox="0 0 424 113" version="1.1" xmlns="http://www.w3.org/2000/svg" xmlns:xlink="http://www.w3.org/1999/xlink" xml:space="preserve" xmlns:serif="http://www.serif.com/" style="fill-rule:evenodd;clip-rule:evenodd;stroke-linejoin:round;stroke-miterlimit:2;"><g id="powered-by-logo-dark"><text x="-1.549px" y="26.693px" style="font-family:'Whitney-BookItalic', 'Whitney';font-style:italic;font-size:36px;fill:#fff;">P<tspan x="15.623px 32.291px 56.771px 72.863px 83.879px " y="26.693px 26.693px 26.693px 26.693px 26.693px ">owere</tspan>d b<tspan x="142.451px " y="26.693px ">y</tspan></text><g id="logo-dark"><g id="logo-dark1" serif:id="logo-dark"><path d="M329.998,80.512l2.031,3.396l7.684,2.808l-4.115,7.551l1.071,1.341l-9.44,0l3.345,-8.564l-0.576,-6.532Z" style="fill:#e2434b;fill-rule:nonzero;"/><path d="M389.841,82.857l0.104,-0.311l4.763,11.721l1.237,1.341l-10.614,0l-2.122,-5.858l6.632,-6.893Z" style="fill:#e2434b;fill-rule:nonzero;"/><path d="M330.334,72.628l-1.323,4.328l3.679,6.154l8.023,2.931l5.047,0.74l-5.378,8.827l11.679,0l-1.288,-1.341l4.998,-8.362l-4.497,-13.775l5.733,12.677l15.631,0l4.966,-3.983l-12.845,14.784l14.147,0l-1.4,-1.341l11.477,-11.928l4.554,-13.675l-0.405,8.39l9.963,11.625l8.859,-3.351l-0.952,-4.031l-2.386,1.123l15.384,-13.13l-14.705,5.603l-0.1,-6.595l-2.053,-4.147l-2.453,1.765l7.692,-8.034l-8.718,0.541l-18.884,-13.423l-55.869,19.73l-2.512,16.605l3.936,-8.707Z" style="fill:#e2434b;fill-rule:nonzero;"/><rect x="327.229" y="95.608" width="68.717" height="1.038" style="fill:#e2434b;fill-rule:nonzero;"/><path d="M15.384,95.982l-15.384,-37.972l10.999,0l10.602,30.073l10.682,-30.073l10.044,0l-15.383,37.972l-11.56,0Z" style="fill:#fff;fill-rule:nonzero;"/><path d="M61.3,89.606c1.807,0 3.521,-0.29 5.142,-0.871c1.621,-0.579 2.883,-1.352 3.787,-2.318c1.169,-0.82 1.753,-1.74 1.753,-2.755l0,-4.346c-1.275,-0.436 -2.657,-0.786 -4.146,-1.051c-1.488,-0.264 -2.922,-0.398 -4.304,-0.398c-2.764,0 -5.022,0.568 -6.775,1.702c-1.755,1.135 -2.631,2.573 -2.631,4.31c0,1.645 0.691,3.009 2.073,4.095c1.382,1.088 3.081,1.632 5.101,1.632Zm-3.028,7.102c-2.02,0 -3.907,-0.303 -5.66,-0.907c-1.754,-0.602 -3.269,-1.449 -4.544,-2.537c-1.276,-1.086 -2.272,-2.355 -2.989,-3.803c-0.717,-1.45 -1.077,-3.044 -1.077,-4.784c0,-1.786 0.44,-3.443 1.316,-4.963c0.876,-1.523 2.098,-2.813 3.666,-3.877c1.569,-1.062 3.441,-1.895 5.62,-2.499c2.178,-0.604 4.57,-0.907 7.175,-0.907c1.859,0 3.679,0.146 5.46,0.436c1.78,0.289 3.36,0.7 4.743,1.231l0,-2.174c0,-2.512 -0.785,-4.444 -2.352,-5.797c-1.567,-1.353 -3.893,-2.03 -6.974,-2.03c-2.232,0 -4.412,0.363 -6.537,1.088c-2.125,0.724 -4.305,1.786 -6.538,3.188l-3.267,-6.16c5.368,-3.236 11.159,-4.856 17.377,-4.856c6.006,0 10.668,1.342 13.99,4.023c3.321,2.681 4.984,6.559 4.984,11.63l0,11.812c0,1.014 0.197,1.74 0.598,2.174c0.398,0.436 1.048,0.678 1.953,0.725l0,8.261c-1.808,0.338 -3.376,0.508 -4.704,0.508c-2.021,0 -3.575,-0.412 -4.664,-1.232c-1.089,-0.821 -1.767,-1.908 -2.032,-3.261l-0.239,-2.102c-1.861,2.222 -4.12,3.914 -6.777,5.073c-2.656,1.159 -5.5,1.74 -8.528,1.74Z" style="fill:#fff;fill-rule:nonzero;"/><path d="M131.448,95.982l-10.682,0l0,-21.305c0,-3.043 -0.586,-5.265 -1.752,-6.666c-1.171,-1.402 -2.792,-2.102 -4.865,-2.102c-1.062,0 -2.151,0.193 -3.267,0.58c-1.116,0.387 -2.167,0.93 -3.148,1.631c-0.985,0.7 -1.875,1.534 -2.671,2.5c-0.797,0.966 -1.383,2.028 -1.755,3.188l0,22.174l-10.681,0l0,-37.972l9.645,0l0,7.029c1.542,-2.415 3.774,-4.299 6.696,-5.652c2.922,-1.353 6.218,-2.03 9.885,-2.03c2.603,0 4.729,0.436 6.378,1.305c1.646,0.87 2.921,2.005 3.825,3.406c0.904,1.402 1.529,2.996 1.874,4.783c0.346,1.788 0.518,3.6 0.518,5.435l0,23.696Z" style="fill:#fff;fill-rule:nonzero;"/><path d="M165.407,94.026c-1.435,0.58 -3.187,1.159 -5.26,1.739c-2.073,0.579 -4.252,0.87 -6.538,0.87c-1.487,0 -2.883,-0.17 -4.184,-0.508c-1.302,-0.338 -2.445,-0.88 -3.429,-1.63c-0.983,-0.748 -1.766,-1.714 -2.351,-2.9c-0.586,-1.182 -0.876,-2.618 -0.876,-4.311l0,-21.813l-5.501,0l0,-7.463l5.501,0l0,-12.319l10.681,0l0,12.319l8.77,0l0,7.463l-8.77,0l0,18.553c0,1.351 0.384,2.308 1.157,2.862c0.77,0.557 1.713,0.833 2.83,0.833c1.115,0 2.204,-0.168 3.267,-0.506c1.064,-0.34 1.914,-0.628 2.552,-0.87l2.151,7.681Z" style="fill:#fff;fill-rule:nonzero;"/><path d="M185.414,89.606c1.808,0 3.521,-0.29 5.143,-0.871c1.619,-0.579 2.882,-1.352 3.786,-2.318c1.169,-0.82 1.754,-1.74 1.754,-2.755l0,-4.346c-1.276,-0.436 -2.658,-0.786 -4.146,-1.051c-1.488,-0.264 -2.923,-0.398 -4.305,-0.398c-2.764,0 -5.022,0.568 -6.775,1.702c-1.754,1.135 -2.63,2.573 -2.63,4.31c0,1.645 0.691,3.009 2.073,4.095c1.382,1.088 3.08,1.632 5.1,1.632Zm-3.028,7.102c-2.02,0 -3.908,-0.303 -5.66,-0.907c-1.754,-0.602 -3.268,-1.449 -4.544,-2.537c-1.275,-1.086 -2.272,-2.355 -2.989,-3.803c-0.717,-1.45 -1.076,-3.044 -1.076,-4.784c0,-1.786 0.439,-3.443 1.314,-4.963c0.877,-1.523 2.099,-2.813 3.668,-3.877c1.568,-1.062 3.441,-1.895 5.62,-2.499c2.178,-0.604 4.57,-0.907 7.175,-0.907c1.859,0 3.679,0.146 5.46,0.436c1.78,0.289 3.359,0.7 4.743,1.231l0,-2.174c0,-2.512 -0.785,-4.444 -2.352,-5.797c-1.569,-1.353 -3.893,-2.03 -6.975,-2.03c-2.232,0 -4.411,0.363 -6.537,1.088c-2.126,0.724 -4.304,1.786 -6.537,3.188l-3.267,-6.16c5.367,-3.236 11.159,-4.856 17.376,-4.856c6.006,0 10.669,1.342 13.991,4.023c3.321,2.681 4.983,6.559 4.983,11.63l0,11.812c0,1.014 0.198,1.74 0.598,2.174c0.398,0.436 1.048,0.678 1.953,0.725l0,8.261c-1.807,0.338 -3.376,0.508 -4.704,0.508c-2.02,0 -3.575,-0.412 -4.664,-1.232c-1.089,-0.821 -1.766,-1.908 -2.031,-3.261l-0.24,-2.102c-1.861,2.222 -4.119,3.914 -6.777,5.073c-2.656,1.159 -5.5,1.74 -8.528,1.74Z" style="fill:#fff;fill-rule:nonzero;"/><path d="M236.672,88.445c1.167,0 2.284,-0.168 3.348,-0.505c1.061,-0.339 2.044,-0.798 2.949,-1.378c0.904,-0.579 1.7,-1.255 2.392,-2.029c0.69,-0.772 1.222,-1.595 1.594,-2.464l0,-9.059c-0.957,-2.22 -2.459,-4.009 -4.504,-5.361c-2.047,-1.353 -4.186,-2.031 -6.416,-2.031c-1.649,0 -3.137,0.327 -4.465,0.979c-1.33,0.652 -2.471,1.523 -3.428,2.609c-0.957,1.088 -1.688,2.331 -2.193,3.733c-0.504,1.401 -0.757,2.851 -0.757,4.347c0,1.547 0.292,2.996 0.877,4.348c0.585,1.353 1.396,2.536 2.433,3.551c1.036,1.015 2.244,1.811 3.626,2.391c1.382,0.58 2.895,0.869 4.544,0.869Zm-3.588,7.754c-2.818,0 -5.369,-0.507 -7.652,-1.521c-2.285,-1.013 -4.266,-2.402 -5.939,-4.167c-1.674,-1.763 -2.963,-3.804 -3.867,-6.123c-0.904,-2.319 -1.354,-4.783 -1.354,-7.392c0,-2.753 0.477,-5.314 1.434,-7.681c0.957,-2.367 2.285,-4.444 3.987,-6.232c1.699,-1.787 3.747,-3.188 6.137,-4.203c2.391,-1.014 5.022,-1.523 7.893,-1.523c3.24,0 6.083,0.665 8.529,1.993c2.443,1.329 4.464,3.105 6.058,5.327l0,-6.667l9.327,0l0,36.162c0,2.8 -0.586,5.312 -1.754,7.536c-1.17,2.221 -2.779,4.105 -4.823,5.653c-2.046,1.545 -4.491,2.728 -7.334,3.55c-2.842,0.821 -5.939,1.232 -9.286,1.232c-4.572,0 -8.409,-0.687 -11.519,-2.066c-3.109,-1.377 -5.78,-3.321 -8.011,-5.832l5.82,-5.146c1.593,1.786 3.598,3.189 6.017,4.203c2.418,1.015 4.983,1.522 7.693,1.522c1.646,0 3.227,-0.207 4.743,-0.616c1.514,-0.412 2.856,-1.051 4.025,-1.92c1.168,-0.87 2.086,-1.983 2.75,-3.333c0.664,-1.354 0.997,-2.948 0.997,-4.783l0,-4.784c-1.384,2.174 -3.322,3.854 -5.82,5.036c-2.497,1.185 -5.181,1.775 -8.051,1.775Z" style="fill:#fff;fill-rule:nonzero;"/><path d="M275.651,77.069c0,1.692 0.279,3.226 0.836,4.602c0.559,1.376 1.328,2.572 2.312,3.586c0.984,1.015 2.139,1.801 3.468,2.356c1.328,0.556 2.763,0.832 4.305,0.832c1.539,0 2.974,-0.276 4.303,-0.832c1.328,-0.555 2.485,-1.341 3.469,-2.356c0.983,-1.014 1.754,-2.222 2.312,-3.623c0.557,-1.4 0.836,-2.945 0.836,-4.638c0,-1.642 -0.279,-3.163 -0.836,-4.565c-0.558,-1.401 -1.329,-2.609 -2.312,-3.623c-0.984,-1.014 -2.141,-1.799 -3.469,-2.356c-1.329,-0.554 -2.764,-0.834 -4.303,-0.834c-1.542,0 -2.977,0.291 -4.305,0.871c-1.329,0.579 -2.484,1.377 -3.468,2.391c-0.984,1.014 -1.753,2.223 -2.312,3.623c-0.557,1.403 -0.836,2.923 -0.836,4.566Zm10.921,19.639c-3.402,0 -6.458,-0.532 -9.168,-1.595c-2.711,-1.061 -5.009,-2.5 -6.896,-4.312c-1.886,-1.811 -3.334,-3.901 -4.343,-6.268c-1.01,-2.367 -1.515,-4.856 -1.515,-7.464c0,-2.656 0.505,-5.17 1.515,-7.537c1.009,-2.366 2.457,-4.457 4.343,-6.268c1.887,-1.812 4.185,-3.249 6.896,-4.312c2.71,-1.063 5.766,-1.595 9.168,-1.595c3.4,0 6.443,0.532 9.128,1.595c2.682,1.063 4.966,2.5 6.855,4.312c1.885,1.811 3.334,3.902 4.344,6.268c1.01,2.367 1.515,4.881 1.515,7.537c0,2.608 -0.505,5.097 -1.515,7.464c-1.01,2.367 -2.445,4.457 -4.305,6.268c-1.861,1.812 -4.144,3.251 -6.856,4.312c-2.71,1.063 -5.766,1.595 -9.166,1.595Z" style="fill:#fff;fill-rule:nonzero;"/></g></g></g></svg>