<?xml version="1.0" encoding="UTF-8" standalone="no"?><!DOCTYPE svg PUBLIC "-//W3C//DTD SVG 1.1//EN" "http://www.w3.org/Graphics/SVG/1.1/DTD/svg11.dtd"><svg width="100%" height="100%" viewBox="0 0 248 132" version="1.1" xmlns="http://www.w3.org/2000/svg" xmlns:xlink="http://www.w3.org/1999/xlink" xml:space="preserve" xmlns:serif="http://www.serif.com/" style="fill-rule:evenodd;clip-rule:evenodd;stroke-linejoin:round;stroke-miterlimit:2;"><g id="rhino-white"><path d="M9.147,90.233l5.162,8.631l19.523,7.135l-10.457,19.186l2.722,3.406l-23.987,0l8.501,-21.76l-1.464,-16.598Z" style="fill:#fff;fill-rule:nonzero;"/><path d="M161.205,96.191l0.263,-0.79l12.104,29.784l3.143,3.406l-26.971,0l-5.39,-14.885l16.851,-17.515Z" style="fill:#fff;fill-rule:nonzero;"/><path d="M10.001,70.2l-3.361,10.998l9.347,15.636l20.388,7.448l12.823,1.882l-13.666,22.427l29.675,0l-3.273,-3.406l12.701,-21.247l-11.426,-35.002l14.565,32.21l39.718,0l12.62,-10.12l-32.639,37.565l35.946,0l-3.557,-3.406l29.162,-30.31l11.571,-34.746l-1.029,21.318l25.317,29.538l22.508,-8.515l-2.419,-10.243l-6.061,2.855l39.089,-33.362l-37.365,14.235l-0.253,-16.756l-5.218,-10.538l-6.232,4.484l19.544,-20.412l-22.15,1.373l-47.983,-34.106l-141.959,50.132l-6.384,42.193l10.001,-22.125Z" style="fill:#fff;fill-rule:nonzero;"/><rect x="2.11" y="128.591" width="174.605" height="2.637" style="fill:#fff;fill-rule:nonzero;"/></g></svg>